<svg width="90" height="90" viewBox="0 0 90 90" fill="none" xmlns="http://www.w3.org/2000/svg">
<path fill-rule="evenodd" clip-rule="evenodd" d="M25.9253 22.9592C22.4139 22.9592 19.5673 25.8057 19.5673 29.3171V60.5607C19.5673 64.0721 22.4139 66.9187 25.9253 66.9187C29.4367 66.9187 32.2833 64.0721 32.2833 60.5607V29.3171C32.2833 25.8057 29.4367 22.9592 25.9253 22.9592ZM10.0315 22.9593C6.52014 22.9593 3.67358 25.8059 3.67358 29.3173L3.67358 60.5609C3.67358 64.0723 6.52014 66.9188 10.0315 66.9188C13.543 66.9188 16.3895 64.0723 16.3895 60.5609V29.3173C16.3895 25.8059 13.543 22.9593 10.0315 22.9593ZM35.4628 29.3171C35.4628 25.8057 38.3093 22.9592 41.8207 22.9592C45.3321 22.9592 48.1787 25.8057 48.1787 29.3171V60.5607C48.1787 64.0721 45.3321 66.9187 41.8207 66.9187C38.3093 66.9187 35.4628 64.0721 35.4628 60.5607V29.3171ZM49.7683 29.2395C49.7683 32.7078 52.5799 35.5195 56.0482 35.5195H80.0467C83.515 35.5195 86.3266 32.7078 86.3266 29.2395C86.3266 25.7712 83.515 22.9596 80.0467 22.9596L56.0482 22.9596C52.5799 22.9596 49.7683 25.7712 49.7683 29.2395ZM56.0482 66.9191C52.5799 66.9191 49.7683 64.1075 49.7683 60.6392C49.7683 57.1708 52.5799 54.3592 56.0482 54.3592H80.0467C83.515 54.3592 86.3266 57.1708 86.3266 60.6392C86.3266 64.1075 83.515 66.9191 80.0467 66.9191H56.0482ZM49.7683 44.9392C49.7683 48.4075 52.5799 51.2191 56.0482 51.2191H80.0467C83.515 51.2191 86.3266 48.4075 86.3266 44.9392C86.3266 41.4709 83.515 38.6592 80.0467 38.6592H56.0482C52.5799 38.6592 49.7683 41.4709 49.7683 44.9392Z" fill="#2C2C2C"/>
</svg>
